<?xml version="1.0" encoding="utf-8"?>
<!-- Generator: Adobe Illustrator 21.1.0, SVG Export Plug-In . SVG Version: 6.00 Build 0)  -->
<svg version="1.1" id="Layer_1" xmlns="http://www.w3.org/2000/svg" xmlns:xlink="http://www.w3.org/1999/xlink" x="0px" y="0px"
	 viewBox="0 0 661.3 133.8" style="enable-background:new 0 0 661.3 133.8;" xml:space="preserve">
<style type="text/css">
	.st0{fill:#005CB9;}
	.st1{clip-path:url(#SVGID_2_);fill:#005CB9;}
	.st2{clip-path:url(#SVGID_2_);fill:#6EC829;}
	.st3{clip-path:url(#SVGID_2_);fill:none;stroke:#005CB9;stroke-width:22;stroke-miterlimit:10;}
</style>
<path class="st0" d="M259.9,111.2V21.8h-18v70.1l-0.2,0.2l-34-70.3h-28.5v89.4h18v-74l0.2-0.2l35.3,74.3L259.9,111.2L259.9,111.2z
	 M335.7,80.1c0-19.6-12.1-32.9-32.4-32.9s-32.4,13.4-32.4,32.9S283,113,303.3,113S335.7,99.7,335.7,80.1L335.7,80.1z M290,80.1
	c0-9.9,1.9-20.6,13.2-20.6s13.2,10.6,13.2,20.6c0,9.9-1.9,20.6-13.2,20.6S290,90,290,80.1L290,80.1z M363.4,49.1H345v62.1h18.6V73.8
	c0.2-9,5.3-14.2,11.1-14.2c9.2,0,11,7.6,11.1,14.2v37.4h18.6V73.8c0.2-9,5.3-14.2,11.1-14.2c9.2,0,11,7.6,11.1,14.2v37.4h18.6V73.8
	c0-5,0.1-10.2-1.9-14.9c-2.6-6.8-12.9-11.8-19.8-11.8c-9.4,0-15.2,3.7-21,11.8c-2.6-6.8-12.9-11.8-19.8-11.8
	c-9.4,0-15.2,3.7-19.1,9.2h-0.2L363.4,49.1L363.4,49.1z M493,82c0,7.3-0.4,18.7-10.6,18.7c-5.2,0-9-3.7-9-8.9
	C473.4,81.7,486.6,81.9,493,82L493,82z M476.2,66.6c-0.2-2.8,1.9-8.9,8.3-8.9c6.6,0,8.5,5.1,8.5,7.7v5.8c-7.4-0.2-16.8,0.1-24.3,3.3
	c-11.3,4.8-13.2,15.4-13.2,19.7c0,12.1,8.7,18.8,20.3,18.8c8.4,0,14.9-3,19.1-10.2h0.2c0,2.6,0.2,5.4,0.6,8.3h16.7
	c-0.2-1.9-0.7-3.7-0.9-6.8V70.5c0-18.7-14-23.3-26.5-23.3c-6.7,0-13.2,1-18.3,4c-5,2.8-8.3,7.7-8.4,15.5h17.9V66.6z M540.7,80.1
	c0-9.5,1.5-20.6,13.4-20.6c10,0,13.4,12,13.4,20.6c0,8.5-3.3,20.6-13.4,20.6C542.2,100.7,540.7,89.7,540.7,80.1L540.7,80.1z
	 M567.4,56.2h-0.2c-3.5-5.2-10.2-9-16.6-9c-19.3,0-29.1,16.2-29.1,32.9c0,16,8.5,32.9,26.7,32.9c8,0,15-3.3,19.1-10.6h0.2
	c0,3,0.2,5.8,0.5,8.8h18.6c-0.2-4.1-0.6-8.3-0.6-12.4v-77h-18.6L567.4,56.2L567.4,56.2z M640.4,79.1L660.7,49h-19.1l-12.3,20.1
	L617.5,49h-21.7L616,77.7l-20.9,33.6h19.2l12.7-23l12.6,22.9h21.7L640.4,79.1L640.4,79.1z"/>
<g>
	<defs>
		<rect id="SVGID_1_" width="133.2" height="133.8"/>
	</defs>
	<clipPath id="SVGID_2_">
		<use xlink:href="#SVGID_1_"  style="overflow:visible;"/>
	</clipPath>
	<polyline class="st1" points="0,-0.6 0,133.8 133.8,133.8 	"/>
	<polygon class="st2" points="112.3,112.3 21.6,21.6 112.3,21.6 	"/>
	<polyline class="st3" points="11.1,133.8 11.2,26 123.1,138.4 123.1,138.4 123.1,-0.6 	"/>
	<line class="st3" x1="133.8" y1="10.9" x2="0" y2="10.9"/>
	<line class="st3" x1="133.8" y1="122.7" x2="0" y2="122.7"/>
</g>
</svg>
